Rokkitt-Light.ufo
<glyph name="quotedbl" format="1">
  <advance width="600"/>
  <unicode hex="0022"/>
  <outline>
    <contour>
      <point x="543" y="1284" type="line"/>
      <point x="425" y="888" type="line"/>
      <point x="391" y="888" type="line"/>
      <point x="448" y="1284" type="line"/>
    </contour>
    <contour>
      <point x="342" y="1284" type="line"/>
      <point x="224" y="888" type="line"/>
      <point x="190" y="888" type="line"/>
      <point x="246" y="1284" type="line"/>
    </contour>
  </outline>
</glyph>
<glyph name="numbersign" format="1">
  <advance width="1014"/>
  <unicode hex="0023"/>
  <outline>
    <contour>
      <point x="119" y="916" type="line"/>
      <point x="302" y="916" type="line"/>
      <point x="410" y="1284" type="line"/>
      <point x="491" y="1284" type="line"/>
      <point x="383" y="916" type="line"/>
      <point x="763" y="916" type="line"/>
      <point x="871" y="1284" type="line"/>
      <point x="953" y="1284" type="line"/>
      <point x="845" y="916" type="line"/>
      <point x="1041" y="916" type="line"/>
      <point x="1022" y="854" type="line"/>
      <point x="827" y="854" type="line"/>
      <point x="715" y="475" type="line"/>
      <point x="910" y="475" type="line"/>
      <point x="891" y="414" type="line"/>
      <point x="696" y="414" type="line"/>
      <point x="575" y="0" type="line"/>
      <point x="492" y="0" type="line"/>
      <point x="615" y="414" type="line"/>
      <point x="234" y="414" type="line"/>
      <point x="113" y="0" type="line"/>
      <point x="30" y="0" type="line"/>
      <point x="153" y="414" type="line"/>
      <point x="-31" y="414" type="line"/>
      <point x="-11" y="475" type="line"/>
      <point x="171" y="475" type="line"/>
      <point x="282" y="854" type="line"/>
      <point x="101" y="854" type="line"/>
    </contour>
    <contour>
      <point x="365" y="854" type="line"/>
      <point x="254" y="475" type="line"/>
      <point x="633" y="475" type="line"/>
      <point x="744" y="854" type="line"/>
    </contour>
  </outline>
</glyph>
<glyph name="quotesingle" format="1">
  <advance width="399"/>
  <unicode hex="0027"/>
  <outline>
    <contour>
      <point x="342" y="1284" type="line"/>
      <point x="224" y="888" type="line"/>
      <point x="190" y="888" type="line"/>
      <point x="246" y="1284" type="line"/>
    </contour>
  </outline>
</glyph>
<glyph name="parenleft" format="1">
  <advance width="543"/>
  <unicode hex="0028"/>
  <outline>
    <contour>
      <point x="61" y="438" type="curve" smooth="yes"/>
      <point x="61" y="504"/>
      <point x="69" y="571"/>
      <point x="84" y="641" type="curve" smooth="yes"/>
      <point x="150" y="947"/>
      <point x="352" y="1249"/>
      <point x="646" y="1319" type="curve"/>
      <point x="631" y="1248" type="line"/>
      <point x="306" y="1139"/>
      <point x="149" y="739"/>
      <point x="149" y="435" type="curve" smooth="yes"/>
      <point x="149" y="253"/>
      <point x="210" y="96"/>
      <point x="372" y="33" type="curve"/>
      <point x="358" y="-39" type="line"/>
      <point x="152" y="15"/>
      <point x="61" y="209"/>
    </contour>
  </outline>
</glyph>
<glyph name="asterisk" format="1">
  <advance width="942"/>
  <unicode hex="002A"/>
  <outline>
    <contour>
      <point x="530" y="1279" type="line"/>
      <point x="635" y="1279" type="line"/>
      <point x="511" y="851" type="line"/>
      <point x="938" y="1032" type="line"/>
      <point x="951" y="942" type="line"/>
      <point x="513" y="817" type="line"/>
      <point x="724" y="491" type="line"/>
      <point x="632" y="431" type="line"/>
      <point x="479" y="792" type="line"/>
      <point x="173" y="431" type="line"/>
      <point x="107" y="491" type="line"/>
      <point x="456" y="817" type="line"/>
      <point x="70" y="942" type="line"/>
      <point x="121" y="1032" type="line"/>
      <point x="473" y="851" type="line"/>
    </contour>
  </outline>
</glyph>
<glyph name="plus" format="1">
  <advance width="799"/>
  <unicode hex="002B"/>
  <outline>
    <contour>
      <point x="507" y="1022" type="line"/>
      <point x="424" y="622" type="line"/>
      <point x="793" y="622" type="line"/>
      <point x="778" y="556" type="line"/>
      <point x="409" y="556" type="line"/>
      <point x="322" y="144" type="line"/>
      <point x="257" y="144" type="line"/>
      <point x="344" y="556" type="line"/>
      <point x="-27" y="556" type="line"/>
      <point x="-13" y="622" type="line"/>
      <point x="359" y="622" type="line"/>
      <point x="443" y="1022" type="line"/>
    </contour>
  </outline>
</glyph>
<glyph name="comma" format="1">
  <advance width="463"/>
  <unicode hex="002C"/>
  <outline>
    <contour>
      <point x="135" y="120" type="line"/>
      <point x="265" y="120" type="line"/>
      <point x="239" y="-6" type="line"/>
      <point x="216" y="-108"/>
      <point x="164" y="-188"/>
      <point x="59" y="-188" type="curve"/>
      <point x="69" y="-142" type="line"/>
      <point x="143" y="-118"/>
      <point x="154" y="-92"/>
      <point x="172" y="-4" type="curve"/>
      <point x="108" y="-4" type="line"/>
    </contour>
  </outline>
</glyph>
<glyph name="slash" format="1">
  <advance width="537"/>
  <unicode hex="002F"/>
  <outline>
    <contour>
      <point x="-113" y="-23" type="line"/>
      <point x="556" y="1306" type="line"/>
      <point x="630" y="1306" type="line"/>
      <point x="-35" y="-23" type="line"/>
    </contour>
  </outline>
</glyph>
<glyph name="zero" format="1">
  <advance width="1135"/>
  <unicode hex="0030"/>
  <outline>
    <contour>
      <point x="1028" y="641" type="curve" smooth="yes"/>
      <point x="947" y="261"/>
      <point x="752" y="-23"/>
      <point x="421" y="-23" type="curve" smooth="yes"/>
      <point x="169" y="-23"/>
      <point x="66" y="141"/>
      <point x="66" y="387" type="curve" smooth="yes"/>
      <point x="66" y="464"/>
      <point x="76" y="549"/>
      <point x="95" y="641" type="curve"/>
      <point x="176" y="1012"/>
      <point x="372" y="1306"/>
      <point x="703" y="1306" type="curve" smooth="yes"/>
      <point x="954" y="1306"/>
      <point x="1057" y="1137"/>
      <point x="1057" y="892" type="curve" smooth="yes"/>
      <point x="1057" y="816"/>
      <point x="1046" y="730"/>
    </contour>
    <contour>
      <point x="971" y="899" type="curve" smooth="yes"/>
      <point x="971" y="1109"/>
      <point x="886" y="1230"/>
      <point x="687" y="1230" type="curve" smooth="yes"/>
      <point x="417" y="1230"/>
      <point x="260" y="1007"/>
      <point x="182" y="641" type="curve" smooth="yes"/>
      <point x="160" y="538"/>
      <point x="150" y="450"/>
      <point x="150" y="373" type="curve" smooth="yes"/>
      <point x="150" y="156"/>
      <point x="243" y="50"/>
      <point x="436" y="50" type="curve" smooth="yes"/>
      <point x="699" y="50"/>
      <point x="856" y="243"/>
      <point x="940" y="641" type="curve" smooth="yes"/>
      <point x="961" y="737"/>
      <point x="971" y="824"/>
    </contour>
  </outline>
</glyph>
<glyph name="one" format="1">
  <advance width="559"/>
  <unicode hex="0031"/>
  <outline>
    <contour>
      <point x="211" y="64" type="line"/>
      <point x="388" y="64" type="line"/>
      <point x="374" y="0" type="line"/>
      <point x="-70" y="0" type="line"/>
      <point x="-57" y="64" type="line"/>
      <point x="128" y="64" type="line"/>
      <point x="366" y="1193" type="line"/>
      <point x="196" y="1163" type="line"/>
      <point x="196" y="1234" type="line"/>
      <point x="471" y="1284" type="line"/>
    </contour>
  </outline>
</glyph>
<glyph name="two" format="1">
  <advance width="991"/>
  <unicode hex="0032"/>
  <outline>
    <contour>
      <point x="680" y="0" type="line"/>
      <point x="-59" y="0" type="line"/>
      <point x="-42" y="84" type="line"/>
      <point x="101" y="200"/>
      <point x="799" y="685"/>
      <point x="854" y="947" type="curve" smooth="yes"/>
      <point x="860" y="974"/>
      <point x="862" y="1001"/>
      <point x="862" y="1026" type="curve" smooth="yes"/>
      <point x="862" y="1158"/>
      <point x="775" y="1231"/>
      <point x="622" y="1231" type="curve" smooth="yes"/>
      <point x="412" y="1231"/>
      <point x="240" y="1078"/>
      <point x="240" y="836" type="curve" smooth="yes"/>
      <point x="240" y="827"/>
      <point x="240" y="819"/>
      <point x="241" y="810" type="curve"/>
      <point x="152" y="810" type="line"/>
      <point x="152" y="1118"/>
      <point x="376" y="1306"/>
      <point x="641" y="1306" type="curve" smooth="yes"/>
      <point x="832" y="1306"/>
      <point x="954" y="1208"/>
      <point x="954" y="1037" type="curve" smooth="yes"/>
      <point x="954" y="1009"/>
      <point x="949" y="978"/>
      <point x="943" y="947" type="curve" smooth="yes"/>
      <point x="883" y="663"/>
      <point x="253" y="225"/>
      <point x="73" y="82" type="curve"/>
      <point x="697" y="82" type="line"/>
    </contour>
  </outline>
</glyph>
<glyph name="three" format="1">
  <advance width="969"/>
  <unicode hex="0033"/>
  <outline>
    <contour>
      <point x="306" y="725" type="line"/>
      <point x="378" y="725" type="line" smooth="yes"/>
      <point x="559" y="725"/>
      <point x="825" y="748"/>
      <point x="825" y="1020" type="curve" smooth="yes"/>
      <point x="825" y="1161"/>
      <point x="690" y="1231"/>
      <point x="549" y="1231" type="curve" smooth="yes"/>
      <point x="416" y="1231"/>
      <point x="282" y="1192"/>
      <point x="192" y="1068" type="curve"/>
      <point x="124" y="1100" type="line"/>
      <point x="235" y="1249"/>
      <point x="406" y="1307"/>
      <point x="567" y="1307" type="curve" smooth="yes"/>
      <point x="744" y="1307"/>
      <point x="915" y="1212"/>
      <point x="915" y="1033" type="curve" smooth="yes"/>
      <point x="915" y="857"/>
      <point x="779" y="731"/>
      <point x="622" y="686" type="curve"/>
      <point x="742" y="657"/>
      <point x="811" y="561"/>
      <point x="811" y="439" type="curve" smooth="yes"/>
      <point x="811" y="162"/>
      <point x="522" y="-19"/>
      <point x="284" y="-19" type="curve" smooth="yes"/>
      <point x="110" y="-19"/>
      <point x="-43" y="62"/>
      <point x="-88" y="224" type="curve"/>
      <point x="-11" y="267" type="line"/>
      <point x="29" y="123"/>
      <point x="151" y="52"/>
      <point x="309" y="52" type="curve" smooth="yes"/>
      <point x="511" y="52"/>
      <point x="723" y="211"/>
      <point x="723" y="437" type="curve" smooth="yes"/>
      <point x="723" y="631"/>
      <point x="513" y="642"/>
      <point x="328" y="642" type="curve" smooth="yes"/>
      <point x="287" y="642" type="line"/>
    </contour>
  </outline>
</glyph>
<glyph name="four" format="1">
  <advance width="858"/>
  <unicode hex="0034"/>
  <outline>
    <contour>
      <point x="-82" y="395" type="line"/>
      <point x="-80" y="460" type="line"/>
      <point x="600" y="1284" type="line"/>
      <point x="719" y="1284" type="line"/>
      <point x="543" y="460" type="line"/>
      <point x="810" y="460" type="line"/>
      <point x="797" y="395" type="line"/>
      <point x="530" y="395" type="line"/>
      <point x="460" y="64" type="line"/>
      <point x="628" y="64" type="line"/>
      <point x="614" y="0" type="line"/>
      <point x="194" y="0" type="line"/>
      <point x="209" y="64" type="line"/>
      <point x="376" y="64" type="line"/>
      <point x="445" y="395" type="line"/>
    </contour>
    <contour>
      <point x="17" y="460" type="line"/>
      <point x="459" y="460" type="line"/>
      <point x="617" y="1203" type="line"/>
    </contour>
  </outline>
</glyph>
<glyph name="nine" format="1">
  <advance width="958"/>
  <unicode hex="0039"/>
  <outline>
    <contour>
      <point x="874" y="993" type="curve" smooth="yes"/>
      <point x="874" y="1123"/>
      <point x="793" y="1231"/>
      <point x="609" y="1231" type="curve" smooth="yes"/>
      <point x="370" y="1231"/>
      <point x="203" y="1049"/>
      <point x="203" y="838" type="curve" smooth="yes"/>
      <point x="203" y="679"/>
      <point x="327" y="598"/>
      <point x="469" y="598" type="curve" smooth="yes"/>
      <point x="640" y="598"/>
      <point x="874" y="733"/>
    </contour>
    <contour>
      <point x="210" y="-134" type="line"/>
      <point x="150" y="-86" type="line"/>
      <point x="657" y="576" type="line"/>
      <point x="581" y="543"/>
      <point x="509" y="526"/>
      <point x="442" y="526" type="curve" smooth="yes"/>
      <point x="254" y="526"/>
      <point x="115" y="653"/>
      <point x="115" y="824" type="curve" smooth="yes"/>
      <point x="115" y="1058"/>
      <point x="330" y="1306"/>
      <point x="624" y="1306" type="curve" smooth="yes"/>
      <point x="803" y="1306"/>
      <point x="955" y="1182"/>
      <point x="955" y="1001" type="curve" smooth="yes"/>
      <point x="955" y="821"/>
      <point x="737" y="569"/>
      <point x="728" y="557" type="curve" smooth="yes"/>
    </contour>
  </outline>
</glyph>
<glyph name="at" format="1">
  <advance width="1466"/>
  <unicode hex="0040"/>
  <outline>
    <contour>
      <point x="914" y="1316" type="curve" smooth="yes"/>
      <point x="1278" y="1316"/>
      <point x="1418" y="1120"/>
      <point x="1418" y="891" type="curve" smooth="yes"/>
      <point x="1418" y="566"/>
      <point x="1131" y="262"/>
      <point x="908" y="262" type="curve" smooth="yes"/>
      <point x="872" y="262"/>
      <point x="834" y="288"/>
      <point x="834" y="353" type="curve" smooth="yes"/>
      <point x="834" y="375"/>
      <point x="837" y="410"/>
      <point x="851" y="441" type="curve"/>
      <point x="737" y="311"/>
      <point x="632" y="262"/>
      <point x="540" y="262" type="curve" smooth="yes"/>
      <point x="431" y="262"/>
      <point x="336" y="341"/>
      <point x="336" y="491" type="curve" smooth="yes"/>
      <point x="336" y="717"/>
      <point x="525" y="1023"/>
      <point x="813" y="1023" type="curve" smooth="yes"/>
      <point x="899" y="1023"/>
      <point x="988" y="981"/>
      <point x="1019" y="874" type="curve"/>
      <point x="1071" y="1001" type="line"/>
      <point x="1161" y="1001" type="line"/>
      <point x="909" y="418" type="line" smooth="yes"/>
      <point x="905" y="407"/>
      <point x="901" y="398"/>
      <point x="901" y="385" type="curve" smooth="yes"/>
      <point x="901" y="357"/>
      <point x="921" y="338"/>
      <point x="949" y="338" type="curve" smooth="yes"/>
      <point x="1040" y="338"/>
      <point x="1332" y="544"/>
      <point x="1332" y="863" type="curve" smooth="yes"/>
      <point x="1332" y="1070"/>
      <point x="1187" y="1242"/>
      <point x="894" y="1242" type="curve" smooth="yes"/>
      <point x="502" y="1242"/>
      <point x="122" y="919"/>
      <point x="122" y="461" type="curve" smooth="yes"/>
      <point x="122" y="195"/>
      <point x="303" y="28"/>
      <point x="650" y="28" type="curve" smooth="yes"/>
      <point x="820" y="28"/>
      <point x="958" y="63"/>
      <point x="1081" y="139" type="curve"/>
      <point x="1108" y="87" type="line"/>
      <point x="975" y="0"/>
      <point x="831" y="-45"/>
      <point x="635" y="-45" type="curve" smooth="yes"/>
      <point x="211" y="-45"/>
      <point x="31" y="189"/>
      <point x="31" y="465" type="curve" smooth="yes"/>
      <point x="31" y="847"/>
      <point x="383" y="1316"/>
    </contour>
    <contour>
      <point x="435" y="505" type="curve" smooth="yes"/>
      <point x="435" y="406"/>
      <point x="483" y="330"/>
      <point x="591" y="330" type="curve" smooth="yes"/>
      <point x="737" y="330"/>
      <point x="950" y="570"/>
      <point x="950" y="788" type="curve" smooth="yes"/>
      <point x="950" y="887"/>
      <point x="889" y="950"/>
      <point x="786" y="950" type="curve" smooth="yes"/>
      <point x="589" y="950"/>
      <point x="435" y="682"/>
    </contour>
  </outline>
</glyph>
<glyph name="B" format="1">
  <advance width="1092"/>
  <unicode hex="0042"/>
  <outline>
    <contour>
      <point x="689" y="1311" type="line" smooth="yes"/>
      <point x="939" y="1311"/>
      <point x="1051" y="1185"/>
      <point x="1051" y="1045" type="curve" smooth="yes"/>
      <point x="1051" y="879"/>
      <point x="912" y="743"/>
      <point x="745" y="697" type="curve"/>
      <point x="942" y="661"/>
      <point x="1009" y="514"/>
      <point x="1009" y="398" type="curve" smooth="yes"/>
      <point x="1009" y="208"/>
      <point x="838" y="0"/>
      <point x="519" y="0" type="curve" smooth="yes"/>
      <point x="-45" y="0" type="line"/>
      <point x="-33" y="62" type="line"/>
      <point x="138" y="62" type="line"/>
      <point x="390" y="1248" type="line"/>
      <point x="193" y="1248" type="line"/>
      <point x="206" y="1311" type="line"/>
    </contour>
    <contour>
      <point x="228" y="62" type="line"/>
      <point x="535" y="62" type="line" smooth="yes"/>
      <point x="777" y="62"/>
      <point x="921" y="234"/>
      <point x="921" y="389" type="curve" smooth="yes"/>
      <point x="921" y="513"/>
      <point x="841" y="653"/>
      <point x="649" y="653" type="curve" smooth="yes"/>
      <point x="355" y="653" type="line"/>
    </contour>
    <contour>
      <point x="368" y="715" type="line"/>
      <point x="593" y="715" type="line" smooth="yes"/>
      <point x="807" y="715"/>
      <point x="967" y="896"/>
      <point x="967" y="1048" type="curve" smooth="yes"/>
      <point x="967" y="1156"/>
      <point x="883" y="1248"/>
      <point x="688" y="1248" type="curve" smooth="yes"/>
      <point x="481" y="1248" type="line"/>
    </contour>
  </outline>
</glyph>
<glyph name="D" format="1">
  <advance width="1262"/>
  <unicode hex="0044"/>
  <outline>
    <contour>
      <point x="553" y="0" type="curve" smooth="yes"/>
      <point x="-57" y="0" type="line"/>
      <point x="-46" y="62" type="line"/>
      <point x="132" y="62" type="line"/>
      <point x="377" y="1248" type="line"/>
      <point x="183" y="1248" type="line"/>
      <point x="193" y="1311" type="line"/>
      <point x="687" y="1311" type="line" smooth="yes"/>
      <point x="1011" y="1311"/>
      <point x="1206" y="1060"/>
      <point x="1206" y="764" type="curve" smooth="yes"/>
      <point x="1206" y="370"/>
      <point x="967" y="0"/>
    </contour>
    <contour>
      <point x="215" y="62" type="line"/>
      <point x="552" y="62" type="line" smooth="yes"/>
      <point x="940" y="62"/>
      <point x="1122" y="448"/>
      <point x="1122" y="762" type="curve" smooth="yes"/>
      <point x="1122" y="1004"/>
      <point x="1003" y="1248"/>
      <point x="688" y="1248" type="curve" smooth="yes"/>
      <point x="463" y="1248" type="line"/>
    </contour>
  </outline>
</glyph>
<glyph name="G" format="1">
  <advance width="1311"/>
  <unicode hex="0047"/>
  <outline>
    <contour>
      <point x="1162" y="1007" type="line"/>
      <point x="1107" y="988" type="line"/>
      <point x="1073" y="1165"/>
      <point x="941" y="1265"/>
      <point x="755" y="1265" type="curve" smooth="yes"/>
      <point x="379" y="1265"/>
      <point x="179" y="899"/>
      <point x="179" y="562" type="curve" smooth="yes"/>
      <point x="179" y="276"/>
      <point x="330" y="48"/>
      <point x="641" y="48" type="curve" smooth="yes"/>
      <point x="815" y="48"/>
      <point x="1054" y="146"/>
      <point x="1097" y="543" type="curve"/>
      <point x="785" y="543" type="line"/>
      <point x="785" y="605" type="line"/>
      <point x="1330" y="605" type="line"/>
      <point x="1330" y="543" type="line"/>
      <point x="1175" y="543" type="line"/>
      <point x="1109" y="66"/>
      <point x="840" y="-20"/>
      <point x="622" y="-20" type="curve" smooth="yes"/>
      <point x="274" y="-20"/>
      <point x="92" y="252"/>
      <point x="92" y="571" type="curve" smooth="yes"/>
      <point x="92" y="952"/>
      <point x="343" y="1332"/>
      <point x="753" y="1332" type="curve" smooth="yes"/>
      <point x="893" y="1332"/>
      <point x="1039" y="1276"/>
      <point x="1111" y="1158" type="curve"/>
      <point x="1134" y="1311" type="line"/>
      <point x="1204" y="1311" type="line"/>
    </contour>
  </outline>
</glyph>
<glyph name="J" format="1">
  <advance width="457"/>
  <unicode hex="004A"/>
  <outline>
    <contour>
      <point x="105" y="103" type="curve" smooth="yes"/>
      <point x="347" y="1248" type="line"/>
      <point x="203" y="1248" type="line"/>
      <point x="217" y="1311" type="line"/>
      <point x="591" y="1311" type="line"/>
      <point x="578" y="1248" type="line"/>
      <point x="433" y="1248" type="line"/>
      <point x="190" y="104" type="line" smooth="yes"/>
      <point x="154" y="-66"/>
      <point x="59" y="-106"/>
      <point x="-73" y="-105" type="curve" smooth="yes"/>
      <point x="-184" y="-104" type="line"/>
      <point x="-176" y="-43" type="line"/>
      <point x="-60" y="-43" type="line" smooth="yes"/>
      <point x="39" y="-43"/>
      <point x="82" y="-3"/>
    </contour>
  </outline>
</glyph>
<glyph name="L" format="1">
  <advance width="1065"/>
  <unicode hex="004C"/>
  <outline>
    <contour>
      <point x="875" y="334" type="line"/>
      <point x="959" y="334" type="line"/>
      <point x="937" y="222"/>
      <point x="915" y="110"/>
      <point x="892" y="0" type="curve"/>
      <point x="-57" y="0" type="line"/>
      <point x="-46" y="62" type="line"/>
      <point x="132" y="62" type="line"/>
      <point x="377" y="1248" type="line"/>
      <point x="183" y="1248" type="line"/>
      <point x="194" y="1311" type="line"/>
      <point x="664" y="1311" type="line"/>
      <point x="653" y="1248" type="line"/>
      <point x="463" y="1248" type="line"/>
      <point x="215" y="62" type="line"/>
      <point x="819" y="62" type="line"/>
    </contour>
  </outline>
</glyph>
<glyph name="M" format="1">
  <advance width="1747"/>
  <unicode hex="004D"/>
  <outline>
    <contour>
      <point x="1733" y="1312" type="line"/>
      <point x="1722" y="1249" type="line"/>
      <point x="1578" y="1249" type="line"/>
      <point x="1473" y="62" type="line"/>
      <point x="1649" y="62" type="line"/>
      <point x="1628" y="0" type="line"/>
      <point x="1199" y="0" type="line"/>
      <point x="1220" y="62" type="line"/>
      <point x="1389" y="62" type="line"/>
      <point x="1496" y="1184" type="line"/>
      <point x="799" y="0" type="line"/>
      <point x="752" y="0" type="line"/>
      <point x="609" y="1170" type="line"/>
      <point x="160" y="62" type="line"/>
      <point x="371" y="62" type="line"/>
      <point x="359" y="0" type="line"/>
      <point x="-111" y="0" type="line"/>
      <point x="-99" y="62" type="line"/>
      <point x="77" y="62" type="line"/>
      <point x="567" y="1249" type="line"/>
      <point x="372" y="1249" type="line"/>
      <point x="383" y="1312" type="line"/>
      <point x="669" y="1312" type="line"/>
      <point x="807" y="159" type="line"/>
      <point x="1486" y="1312" type="line"/>
    </contour>
  </outline>
</glyph>
<glyph name="P" format="1">
  <advance width="1110"/>
  <unicode hex="0050"/>
  <outline>
    <contour>
      <point x="334" y="602" type="line"/>
      <point x="636" y="602" type="line" smooth="yes"/>
      <point x="884" y="602"/>
      <point x="1033" y="813"/>
      <point x="1033" y="991" type="curve" smooth="yes"/>
      <point x="1033" y="1129"/>
      <point x="947" y="1249"/>
      <point x="752" y="1249" type="curve" smooth="yes"/>
      <point x="471" y="1249" type="line"/>
    </contour>
    <contour>
      <point x="619" y="539" type="curve" smooth="yes"/>
      <point x="320" y="539" type="line"/>
      <point x="218" y="62" type="line"/>
      <point x="430" y="62" type="line"/>
      <point x="417" y="0" type="line"/>
      <point x="-55" y="0" type="line"/>
      <point x="-43" y="62" type="line"/>
      <point x="128" y="62" type="line"/>
      <point x="380" y="1249" type="line"/>
      <point x="183" y="1249" type="line"/>
      <point x="196" y="1312" type="line"/>
      <point x="753" y="1312" type="line" smooth="yes"/>
      <point x="1009" y="1312"/>
      <point x="1121" y="1165"/>
      <point x="1121" y="998" type="curve" smooth="yes"/>
      <point x="1121" y="785"/>
      <point x="933" y="539"/>
    </contour>
  </outline>
</glyph>
<glyph name="R" format="1">
  <advance width="1194"/>
  <unicode hex="0052"/>
  <outline>
    <contour>
      <point x="673" y="654" type="curve" smooth="yes"/>
      <point x="570" y="654" type="line"/>
      <point x="882" y="62" type="line"/>
      <point x="1092" y="62" type="line"/>
      <point x="1084" y="0" type="line"/>
      <point x="703" y="0" type="line"/>
      <point x="710" y="62" type="line"/>
      <point x="785" y="62" type="line"/>
      <point x="484" y="654" type="line"/>
      <point x="344" y="654" type="line"/>
      <point x="217" y="62" type="line"/>
      <point x="429" y="62" type="line"/>
      <point x="417" y="0" type="line"/>
      <point x="-55" y="0" type="line"/>
      <point x="-44" y="62" type="line"/>
      <point x="127" y="62" type="line"/>
      <point x="379" y="1249" type="line"/>
      <point x="182" y="1249" type="line"/>
      <point x="195" y="1312" type="line"/>
      <point x="783" y="1312" type="line" smooth="yes"/>
      <point x="1024" y="1312"/>
      <point x="1131" y="1184"/>
      <point x="1131" y="1041" type="curve" smooth="yes"/>
      <point x="1131" y="858"/>
      <point x="957" y="654"/>
    </contour>
    <contour>
      <point x="357" y="716" type="line"/>
      <point x="691" y="716" type="line" smooth="yes"/>
      <point x="907" y="716"/>
      <point x="1043" y="885"/>
      <point x="1043" y="1034" type="curve" smooth="yes"/>
      <point x="1043" y="1147"/>
      <point x="962" y="1249"/>
      <point x="782" y="1249" type="curve" smooth="yes"/>
      <point x="470" y="1249" type="line"/>
    </contour>
  </outline>
</glyph>
<glyph name="W" format="1">
  <advance width="1688"/>
  <unicode hex="0057"/>
  <outline>
    <contour>
      <point x="1894" y="1248" type="line"/>
      <point x="1739" y="1248" type="line"/>
      <point x="1116" y="0" type="line"/>
      <point x="1011" y="0" type="line"/>
      <point x="941" y="1086" type="line"/>
      <point x="413" y="0" type="line"/>
      <point x="308" y="0" type="line"/>
      <point x="232" y="1248" type="line"/>
      <point x="84" y="1248" type="line"/>
      <point x="84" y="1311" type="line"/>
      <point x="481" y="1311" type="line"/>
      <point x="481" y="1248" type="line"/>
      <point x="325" y="1248" type="line"/>
      <point x="383" y="105" type="line"/>
      <point x="961" y="1311" type="line"/>
      <point x="1006" y="1311" type="line"/>
      <point x="1086" y="105" type="line"/>
      <point x="1635" y="1248" type="line"/>
      <point x="1500" y="1248" type="line"/>
      <point x="1500" y="1311" type="line"/>
      <point x="1894" y="1311" type="line"/>
    </contour>
  </outline>
</glyph>
<glyph name="X" format="1">
  <advance width="1126"/>
  <unicode hex="0058"/>
  <outline>
    <contour>
      <point x="104" y="1248" type="line"/>
      <point x="130" y="1311" type="line"/>
      <point x="601" y="1311" type="line"/>
      <point x="574" y="1248" type="line"/>
      <point x="416" y="1248" type="line"/>
      <point x="606" y="765" type="line"/>
      <point x="971" y="1248" type="line"/>
      <point x="777" y="1248" type="line"/>
      <point x="800" y="1311" type="line"/>
      <point x="1271" y="1311" type="line"/>
      <point x="1248" y="1248" type="line"/>
      <point x="1083" y="1248" type="line"/>
      <point x="643" y="669" type="line"/>
      <point x="880" y="62" type="line"/>
      <point x="1089" y="62" type="line"/>
      <point x="1074" y="0" type="line"/>
      <point x="604" y="0" type="line"/>
      <point x="619" y="62" type="line"/>
      <point x="796" y="62" type="line"/>
      <point x="587" y="595" type="line"/>
      <point x="183" y="62" type="line"/>
      <point x="392" y="62" type="line"/>
      <point x="367" y="0" type="line"/>
      <point x="-102" y="0" type="line"/>
      <point x="-77" y="62" type="line"/>
      <point x="73" y="62" type="line"/>
      <point x="550" y="691" type="line"/>
      <point x="330" y="1248" type="line"/>
    </contour>
  </outline>
</glyph>
<glyph name="Y" format="1">
  <advance width="1006"/>
  <unicode hex="0059"/>
  <outline>
    <contour>
      <point x="1214" y="1248" type="line"/>
      <point x="1058" y="1248" type="line"/>
      <point x="530" y="519" type="line"/>
      <point x="435" y="62" type="line"/>
      <point x="644" y="62" type="line"/>
      <point x="634" y="0" type="line"/>
      <point x="163" y="0" type="line"/>
      <point x="174" y="62" type="line"/>
      <point x="350" y="62" type="line"/>
      <point x="445" y="526" type="line"/>
      <point x="177" y="1248" type="line"/>
      <point x="29" y="1248" type="line"/>
      <point x="40" y="1311" type="line"/>
      <point x="436" y="1311" type="line"/>
      <point x="425" y="1248" type="line"/>
      <point x="277" y="1248" type="line"/>
      <point x="508" y="610" type="line"/>
      <point x="956" y="1248" type="line"/>
      <point x="820" y="1248" type="line"/>
      <point x="833" y="1311" type="line"/>
      <point x="1226" y="1311" type="line"/>
    </contour>
  </outline>
</glyph>
<glyph name="asciicircum" format="1">
  <advance width="911"/>
  <unicode hex="005E"/>
  <outline>
    <contour>
      <point x="619" y="1306" type="line"/>
      <point x="853" y="792" type="line"/>
      <point x="778" y="792" type="line"/>
      <point x="560" y="1234" type="line"/>
      <point x="139" y="792" type="line"/>
      <point x="61" y="792" type="line"/>
      <point x="530" y="1306" type="line"/>
    </contour>
  </outline>
</glyph>
<glyph name="underscore" format="1">
  <advance width="1073"/>
  <unicode hex="005F"/>
  <outline>
    <contour>
      <point x="876" y="0" type="line"/>
      <point x="861" y="-64" type="line"/>
      <point x="98" y="-64" type="line"/>
      <point x="115" y="0" type="line"/>
    </contour>
  </outline>
</glyph>
<glyph name="c" format="1">
  <advance width="828"/>
  <unicode hex="0063"/>
  <outline>
    <contour>
      <point x="696.723" y="733" type="line"/>
      <point x="696.723" y="750"/>
      <point x="626.723" y="789"/>
      <point x="536.723" y="789" type="curve" smooth="yes"/>
      <point x="288.723" y="789"/>
      <point x="142.723" y="542"/>
      <point x="142.723" y="333" type="curve" smooth="yes"/>
      <point x="142.723" y="178"/>
      <point x="222.723" y="43"/>
      <point x="401.723" y="43" type="curve" smooth="yes"/>
      <point x="493.723" y="43"/>
      <point x="594.723" y="95"/>
      <point x="675.723" y="208" type="curve"/>
      <point x="725.723" y="170" type="line"/>
      <point x="643.723" y="43"/>
      <point x="514.723" y="-18"/>
      <point x="398.723" y="-18" type="curve" smooth="yes"/>
      <point x="169.723" y="-18"/>
      <point x="65.7227" y="149"/>
      <point x="65.7227" y="336" type="curve" smooth="yes"/>
      <point x="65.7227" y="576"/>
      <point x="237.723" y="851"/>
      <point x="539.723" y="851" type="curve" smooth="yes"/>
      <point x="649.723" y="851"/>
      <point x="776.723" y="802"/>
      <point x="769.723" y="741" type="curve" smooth="yes"/>
      <point x="755.723" y="632" type="line"/>
      <point x="684.723" y="613" type="line"/>
    </contour>
  </outline>
</glyph>
<glyph name="e" format="1">
  <advance width="876"/>
  <unicode hex="0065"/>
  <outline>
    <contour>
      <point x="416" y="-18" type="curve" smooth="yes"/>
      <point x="234" y="-18"/>
      <point x="66" y="109"/>
      <point x="66" y="355" type="curve" smooth="yes"/>
      <point x="66" y="594"/>
      <point x="220" y="851"/>
      <point x="498" y="851" type="curve" smooth="yes"/>
      <point x="682" y="851"/>
      <point x="797" y="711"/>
      <point x="797" y="532" type="curve" smooth="yes"/>
      <point x="797" y="503"/>
      <point x="791" y="440"/>
      <point x="785" y="420" type="curve"/>
      <point x="156" y="420" type="line"/>
      <point x="151" y="401"/>
      <point x="150" y="378"/>
      <point x="150" y="358" type="curve" smooth="yes"/>
      <point x="150" y="156"/>
      <point x="273" y="43"/>
      <point x="419" y="43" type="curve" smooth="yes"/>
      <point x="517" y="43"/>
      <point x="626" y="95"/>
      <point x="713" y="208" type="curve"/>
      <point x="763" y="170" type="line"/>
      <point x="675" y="43"/>
      <point x="540" y="-18"/>
    </contour>
    <contour>
      <point x="729" y="542" type="curve" smooth="yes"/>
      <point x="729" y="684"/>
      <point x="637" y="789"/>
      <point x="501" y="789" type="curve" smooth="yes"/>
      <point x="351" y="789"/>
      <point x="210" y="678"/>
      <point x="165" y="476" type="curve"/>
      <point x="723" y="476" type="line"/>
      <point x="727" y="500"/>
      <point x="729" y="521"/>
    </contour>
  </outline>
</glyph>
<glyph name="g" format="1">
  <advance width="922"/>
  <unicode hex="0067"/>
  <outline>
    <contour>
      <point x="152" y="362" type="curve" smooth="yes"/>
      <point x="152" y="200"/>
      <point x="213" y="43"/>
      <point x="378" y="43" type="curve" smooth="yes"/>
      <point x="588" y="43"/>
      <point x="708" y="276"/>
      <point x="708" y="482" type="curve" smooth="yes"/>
      <point x="708" y="644"/>
      <point x="633" y="788"/>
      <point x="467" y="788" type="curve" smooth="yes"/>
      <point x="250" y="788"/>
      <point x="152" y="560"/>
    </contour>
    <contour>
      <point x="628" y="51" type="curve" smooth="yes"/>
      <point x="653" y="155" type="line"/>
      <point x="595" y="43"/>
      <point x="487" y="-18"/>
      <point x="382" y="-18" type="curve" smooth="yes"/>
      <point x="224" y="-18"/>
      <point x="70" y="94"/>
      <point x="70" y="350" type="curve" smooth="yes"/>
      <point x="70" y="614"/>
      <point x="211" y="850"/>
      <point x="469" y="850" type="curve" smooth="yes"/>
      <point x="593" y="850"/>
      <point x="713" y="766"/>
      <point x="742" y="598" type="curve"/>
      <point x="781" y="828" type="line"/>
      <point x="865" y="828" type="line"/>
      <point x="708" y="49" type="line" smooth="yes"/>
      <point x="655" y="-212"/>
      <point x="511" y="-312"/>
      <point x="315" y="-312" type="curve" smooth="yes"/>
      <point x="220" y="-312"/>
      <point x="132" y="-285"/>
      <point x="62" y="-225" type="curve"/>
      <point x="97" y="-174" type="line"/>
      <point x="146" y="-219"/>
      <point x="223" y="-251"/>
      <point x="315" y="-251" type="curve" smooth="yes"/>
      <point x="484" y="-251"/>
      <point x="573" y="-179"/>
    </contour>
  </outline>
</glyph>
<glyph name="m" format="1">
  <advance width="1497"/>
  <unicode hex="006D"/>
  <outline>
    <contour>
      <point x="783" y="469" type="curve" smooth="yes"/>
      <point x="691" y="0" type="line"/>
      <point x="602" y="0" type="line"/>
      <point x="713" y="550" type="line" smooth="yes"/>
      <point x="718" y="577"/>
      <point x="723" y="607"/>
      <point x="723" y="629" type="curve" smooth="yes"/>
      <point x="723" y="721"/>
      <point x="684" y="789"/>
      <point x="580" y="789" type="curve" smooth="yes"/>
      <point x="477" y="789"/>
      <point x="316" y="688"/>
      <point x="273" y="469" type="curve" smooth="yes"/>
      <point x="181" y="0" type="line"/>
      <point x="96" y="0" type="line"/>
      <point x="247" y="770" type="line"/>
      <point x="84" y="770" type="line"/>
      <point x="96" y="828" type="line"/>
      <point x="340" y="828" type="line"/>
      <point x="298" y="669" type="line"/>
      <point x="367" y="787"/>
      <point x="472" y="851"/>
      <point x="591" y="851" type="curve" smooth="yes"/>
      <point x="724" y="851"/>
      <point x="793" y="769"/>
      <point x="803" y="657" type="curve"/>
      <point x="875" y="773"/>
      <point x="980" y="851"/>
      <point x="1101" y="851" type="curve" smooth="yes"/>
      <point x="1233" y="851"/>
      <point x="1292" y="758"/>
      <point x="1292" y="628" type="curve" smooth="yes"/>
      <point x="1292" y="602"/>
      <point x="1288" y="574"/>
      <point x="1283" y="545" type="curve" smooth="yes"/>
      <point x="1213" y="190" type="line" smooth="yes"/>
      <point x="1209" y="168"/>
      <point x="1204" y="142"/>
      <point x="1204" y="114" type="curve" smooth="yes"/>
      <point x="1204" y="72"/>
      <point x="1217" y="36"/>
      <point x="1266" y="36" type="curve" smooth="yes"/>
      <point x="1320" y="36"/>
      <point x="1360" y="119"/>
      <point x="1380" y="197" type="curve"/>
      <point x="1439" y="173" type="line"/>
      <point x="1410" y="50"/>
      <point x="1350" y="-28"/>
      <point x="1258" y="-28" type="curve" smooth="yes"/>
      <point x="1158" y="-28"/>
      <point x="1121" y="42"/>
      <point x="1121" y="121" type="curve" smooth="yes"/>
      <point x="1121" y="142"/>
      <point x="1122" y="161"/>
      <point x="1126" y="180" type="curve" smooth="yes"/>
      <point x="1199" y="550" type="line" smooth="yes"/>
      <point x="1204" y="577"/>
      <point x="1208" y="607"/>
      <point x="1208" y="629" type="curve" smooth="yes"/>
      <point x="1208" y="721"/>
      <point x="1180" y="789"/>
      <point x="1090" y="789" type="curve" smooth="yes"/>
      <point x="986" y="789"/>
      <point x="825" y="688"/>
    </contour>
  </outline>
</glyph>
<glyph name="p" format="1">
  <advance width="928"/>
  <unicode hex="0070"/>
  <outline>
    <contour>
      <point x="788" y="495" type="curve" smooth="yes"/>
      <point x="788" y="652"/>
      <point x="723" y="789"/>
      <point x="580" y="789" type="curve" smooth="yes"/>
      <point x="357" y="789"/>
      <point x="230" y="555"/>
      <point x="230" y="349" type="curve" smooth="yes"/>
      <point x="230" y="188"/>
      <point x="304" y="43"/>
      <point x="471" y="43" type="curve" smooth="yes"/>
      <point x="673" y="43"/>
      <point x="788" y="286"/>
    </contour>
    <contour>
      <point x="19" y="-268" type="line"/>
      <point x="229" y="771" type="line"/>
      <point x="60" y="771" type="line"/>
      <point x="73" y="828" type="line"/>
      <point x="327" y="828" type="line"/>
      <point x="295" y="686" type="line"/>
      <point x="355" y="793"/>
      <point x="467" y="851"/>
      <point x="576" y="851" type="curve" smooth="yes"/>
      <point x="771" y="851"/>
      <point x="862" y="678"/>
      <point x="862" y="486" type="curve" smooth="yes"/>
      <point x="862" y="248"/>
      <point x="722" y="-18"/>
      <point x="469" y="-18" type="curve" smooth="yes"/>
      <point x="345" y="-18"/>
      <point x="225" y="65"/>
      <point x="196" y="233" type="curve"/>
      <point x="101" y="-268" type="line"/>
      <point x="300" y="-268" type="line"/>
      <point x="287" y="-329" type="line"/>
      <point x="-166" y="-329" type="line"/>
      <point x="-152" y="-268" type="line"/>
    </contour>
  </outline>
</glyph>
<glyph name="q" format="1">
  <advance width="946"/>
  <unicode hex="0071"/>
  <outline>
    <contour>
      <point x="379" y="-329" type="line"/>
      <point x="393" y="-268" type="line"/>
      <point x="558" y="-268" type="line"/>
      <point x="643" y="145" type="line"/>
      <point x="584" y="39"/>
      <point x="476" y="-18"/>
      <point x="372" y="-18" type="curve" smooth="yes"/>
      <point x="163" y="-18"/>
      <point x="66" y="158"/>
      <point x="66" y="352" type="curve" smooth="yes"/>
      <point x="66" y="588"/>
      <point x="210" y="850"/>
      <point x="469" y="850" type="curve" smooth="yes"/>
      <point x="593" y="850"/>
      <point x="713" y="766"/>
      <point x="742" y="598" type="curve"/>
      <point x="781" y="828" type="line"/>
      <point x="865" y="828" type="line"/>
      <point x="645" y="-268" type="line"/>
      <point x="813" y="-268" type="line"/>
      <point x="801" y="-329" type="line"/>
    </contour>
    <contour>
      <point x="139" y="342" type="curve" smooth="yes"/>
      <point x="139" y="183"/>
      <point x="210" y="43"/>
      <point x="368" y="43" type="curve" smooth="yes"/>
      <point x="584" y="43"/>
      <point x="708" y="276"/>
      <point x="708" y="482" type="curve" smooth="yes"/>
      <point x="708" y="644"/>
      <point x="633" y="788"/>
      <point x="467" y="788" type="curve" smooth="yes"/>
      <point x="260" y="788"/>
      <point x="139" y="549"/>
    </contour>
  </outline>
</glyph>
<glyph name="r" format="1">
  <advance width="659"/>
  <unicode hex="0072"/>
  <outline>
    <contour>
      <point x="298" y="669" type="line"/>
      <point x="364" y="782"/>
      <point x="465" y="851"/>
      <point x="578" y="851" type="curve" smooth="yes"/>
      <point x="643" y="851"/>
      <point x="656" y="821"/>
      <point x="656" y="748" type="curve" smooth="yes"/>
      <point x="656" y="666" type="line"/>
      <point x="587" y="653" type="line"/>
      <point x="587" y="774"/>
      <point x="590" y="789"/>
      <point x="559" y="789" type="curve" smooth="yes"/>
      <point x="468" y="789"/>
      <point x="314" y="686"/>
      <point x="272" y="469" type="curve" smooth="yes"/>
      <point x="180" y="0" type="line"/>
      <point x="94" y="0" type="line"/>
      <point x="246" y="770" type="line"/>
      <point x="84" y="770" type="line"/>
      <point x="96" y="828" type="line"/>
      <point x="339" y="828" type="line"/>
    </contour>
  </outline>
</glyph>
<glyph name="s" format="1">
  <advance width="690"/>
  <unicode hex="0073"/>
  <outline>
    <contour>
      <point x="535" y="199" type="curve" smooth="yes"/>
      <point x="535" y="60"/>
      <point x="407" y="-18"/>
      <point x="256" y="-18" type="curve" smooth="yes"/>
      <point x="159" y="-18"/>
      <point x="47" y="28"/>
      <point x="47" y="91" type="curve" smooth="yes"/>
      <point x="47" y="92"/>
      <point x="48" y="94"/>
      <point x="62" y="202" type="curve"/>
      <point x="135" y="214" type="line"/>
      <point x="121" y="112"/>
      <point x="119" y="110"/>
      <point x="119" y="108" type="curve" smooth="yes"/>
      <point x="119" y="64"/>
      <point x="193" y="43"/>
      <point x="275" y="43" type="curve" smooth="yes"/>
      <point x="362" y="43"/>
      <point x="449" y="87"/>
      <point x="449" y="204" type="curve" smooth="yes"/>
      <point x="449" y="394"/>
      <point x="136" y="425"/>
      <point x="136" y="628" type="curve" smooth="yes"/>
      <point x="136" y="771"/>
      <point x="249" y="851"/>
      <point x="384" y="851" type="curve" smooth="yes"/>
      <point x="479" y="851"/>
      <point x="584" y="810"/>
      <point x="578" y="761" type="curve" smooth="yes"/>
      <point x="564" y="652" type="line"/>
      <point x="493" y="633" type="line"/>
      <point x="505" y="753" type="line" smooth="yes"/>
      <point x="506" y="764"/>
      <point x="452" y="792"/>
      <point x="381" y="792" type="curve" smooth="yes"/>
      <point x="285" y="792"/>
      <point x="218" y="733"/>
      <point x="218" y="635" type="curve" smooth="yes"/>
      <point x="218" y="465"/>
      <point x="535" y="427"/>
    </contour>
  </outline>
</glyph>
<glyph name="u" format="1">
  <advance width="1014"/>
  <unicode hex="0075"/>
  <outline>
    <contour>
      <point x="846" y="828" type="line"/>
      <point x="724" y="202" type="line" smooth="yes"/>
      <point x="721" y="186"/>
      <point x="713" y="155"/>
      <point x="713" y="127" type="curve" smooth="yes"/>
      <point x="713" y="90"/>
      <point x="721" y="52"/>
      <point x="771" y="52" type="curve" smooth="yes"/>
      <point x="838" y="52"/>
      <point x="876" y="134"/>
      <point x="895" y="210" type="curve"/>
      <point x="954" y="188" type="line"/>
      <point x="926" y="64"/>
      <point x="861" y="-8"/>
      <point x="761" y="-8" type="curve" smooth="yes"/>
      <point x="675" y="-8"/>
      <point x="632" y="55"/>
      <point x="632" y="143" type="curve"/>
      <point x="559" y="41"/>
      <point x="465" y="-19"/>
      <point x="344" y="-19" type="curve" smooth="yes"/>
      <point x="195" y="-19"/>
      <point x="129" y="78"/>
      <point x="129" y="206" type="curve" smooth="yes"/>
      <point x="129" y="229"/>
      <point x="131" y="256"/>
      <point x="137" y="286" type="curve" smooth="yes"/>
      <point x="231" y="770" type="line"/>
      <point x="68" y="770" type="line"/>
      <point x="82" y="828" type="line"/>
      <point x="324" y="828" type="line"/>
      <point x="217" y="283" type="line"/>
      <point x="214" y="261"/>
      <point x="210" y="237"/>
      <point x="210" y="211" type="curve" smooth="yes"/>
      <point x="210" y="124"/>
      <point x="246" y="43"/>
      <point x="357" y="43" type="curve" smooth="yes"/>
      <point x="465" y="43"/>
      <point x="629" y="145"/>
      <point x="672" y="363" type="curve" smooth="yes"/>
      <point x="764" y="828" type="line"/>
    </contour>
  </outline>
</glyph>
<glyph name="braceleft" format="1">
  <advance width="524"/>
  <unicode hex="007B"/>
  <outline>
    <contour>
      <point x="145" y="641" type="curve"/>
      <point x="218" y="635"/>
      <point x="243" y="591"/>
      <point x="243" y="508" type="curve" smooth="yes"/>
      <point x="243" y="428"/>
      <point x="187" y="238"/>
      <point x="187" y="127" type="curve" smooth="yes"/>
      <point x="187" y="48"/>
      <point x="231" y="33"/>
      <point x="340" y="33" type="curve"/>
      <point x="329" y="-23" type="line"/>
      <point x="261" y="-23" type="line" smooth="yes"/>
      <point x="137" y="-23"/>
      <point x="98" y="30"/>
      <point x="98" y="117" type="curve" smooth="yes"/>
      <point x="98" y="218"/>
      <point x="164" y="433"/>
      <point x="164" y="509" type="curve" smooth="yes"/>
      <point x="164" y="573"/>
      <point x="132" y="597"/>
      <point x="37" y="597" type="curve"/>
      <point x="54" y="684" type="line"/>
      <point x="207" y="684"/>
      <point x="224" y="748"/>
      <point x="265" y="945" type="curve" smooth="yes"/>
      <point x="309" y="1155"/>
      <point x="334" y="1306"/>
      <point x="543" y="1306" type="curve" smooth="yes"/>
      <point x="610" y="1306" type="line"/>
      <point x="599" y="1249" type="line"/>
      <point x="452" y="1249"/>
      <point x="412" y="1221"/>
      <point x="375" y="1044" type="curve" smooth="yes"/>
      <point x="321" y="785"/>
      <point x="277" y="648"/>
    </contour>
  </outline>
</glyph>
<glyph name="bar" format="1">
  <advance width="424"/>
  <unicode hex="007C"/>
  <outline>
    <contour>
      <point x="31" y="-23" type="line"/>
      <point x="313" y="1306" type="line"/>
      <point x="384" y="1306" type="line"/>
      <point x="101" y="-23" type="line"/>
    </contour>
  </outline>
</glyph>
<glyph name="braceright" format="1">
  <advance width="528"/>
  <unicode hex="007D"/>
  <outline>
    <contour>
      <point x="378" y="641" type="curve"/>
      <point x="308" y="645"/>
      <point x="281" y="690"/>
      <point x="281" y="774" type="curve" smooth="yes"/>
      <point x="281" y="852"/>
      <point x="336" y="1042"/>
      <point x="336" y="1155" type="curve" smooth="yes"/>
      <point x="336" y="1235"/>
      <point x="293" y="1249"/>
      <point x="184" y="1249" type="curve"/>
      <point x="196" y="1306" type="line"/>
      <point x="264" y="1306" type="line" smooth="yes"/>
      <point x="388" y="1306"/>
      <point x="425" y="1252"/>
      <point x="425" y="1164" type="curve" smooth="yes"/>
      <point x="425" y="1063"/>
      <point x="363" y="848"/>
      <point x="363" y="773" type="curve" smooth="yes"/>
      <point x="363" y="709"/>
      <point x="392" y="684"/>
      <point x="487" y="684" type="curve"/>
      <point x="470" y="597" type="line"/>
      <point x="317" y="597"/>
      <point x="303" y="534"/>
      <point x="261" y="337" type="curve" smooth="yes"/>
      <point x="216" y="126"/>
      <point x="190" y="-23"/>
      <point x="-19" y="-23" type="curve" smooth="yes"/>
      <point x="-86" y="-23" type="line"/>
      <point x="-75" y="33" type="line"/>
      <point x="73" y="33"/>
      <point x="113" y="60"/>
      <point x="151" y="238" type="curve" smooth="yes"/>
      <point x="206" y="496"/>
      <point x="249" y="632"/>
    </contour>
  </outline>
</glyph>
<glyph name="asciitilde" format="1">
  <advance width="836"/>
  <unicode hex="007E"/>
  <outline>
    <contour>
      <point x="202" y="1070" type="curve"/>
      <point x="162" y="1070" type="line"/>
      <point x="193" y="1163"/>
      <point x="254" y="1204"/>
      <point x="319" y="1204" type="curve" smooth="yes"/>
      <point x="440" y="1204"/>
      <point x="531" y="1155"/>
      <point x="622" y="1155" type="curve" smooth="yes"/>
      <point x="661" y="1155"/>
      <point x="694" y="1172"/>
      <point x="710" y="1200" type="curve"/>
      <point x="749" y="1200" type="line"/>
      <point x="720" y="1115"/>
      <point x="665" y="1063"/>
      <point x="590" y="1063" type="curve" smooth="yes"/>
      <point x="457" y="1063"/>
      <point x="367" y="1112"/>
      <point x="272" y="1112" type="curve" smooth="yes"/>
      <point x="236" y="1112"/>
      <point x="216" y="1098"/>
    </contour>
  </outline>
</glyph>
<glyph name="exclamdown" format="1">
  <advance width="455"/>
  <unicode hex="00A1"/>
  <outline>
    <contour>
      <point x="268" y="1109" type="line"/>
      <point x="292" y="1218" type="line"/>
      <point x="399" y="1218" type="line"/>
      <point x="378" y="1109" type="line"/>
    </contour>
    <contour>
      <point x="253" y="861" type="line"/>
      <point x="286" y="861" type="line"/>
      <point x="212" y="376" type="line"/>
      <point x="134" y="0" type="line"/>
      <point x="41" y="0" type="line"/>
      <point x="120" y="376" type="line"/>
    </contour>
  </outline>
</glyph>
<glyph name="cent" format="1">
  <advance width="938"/>
  <unicode hex="00A2"/>
  <outline>
    <contour>
      <point x="197" y="15" type="line"/>
      <point x="70" y="67"/>
      <point x="-16" y="180"/>
      <point x="-16" y="335" type="curve" smooth="yes"/>
      <point x="-16" y="661"/>
      <point x="250" y="883"/>
      <point x="552" y="888" type="curve" smooth="yes"/>
      <point x="582" y="888"/>
      <point x="607" y="885"/>
      <point x="634" y="881" type="curve"/>
      <point x="747" y="1107" type="line"/>
      <point x="807" y="1107" type="line"/>
      <point x="688" y="868" type="line"/>
      <point x="748" y="848"/>
      <point x="788" y="815"/>
      <point x="802" y="780" type="curve"/>
      <point x="826" y="895" type="line"/>
      <point x="905" y="895" type="line"/>
      <point x="848" y="624" type="line"/>
      <point x="779" y="624" type="line"/>
      <point x="780" y="632"/>
      <point x="780" y="641"/>
      <point x="780" y="648" type="curve" smooth="yes"/>
      <point x="780" y="713"/>
      <point x="749" y="776"/>
      <point x="655" y="804" type="curve"/>
      <point x="287" y="67" type="line"/>
      <point x="316" y="60"/>
      <point x="344" y="56"/>
      <point x="376" y="56" type="curve" smooth="yes"/>
      <point x="507" y="56"/>
      <point x="656" y="114"/>
      <point x="771" y="231" type="curve"/>
      <point x="778" y="155" type="line"/>
      <point x="635" y="37"/>
      <point x="485" y="-14"/>
      <point x="356" y="-14" type="curve" smooth="yes"/>
      <point x="320" y="-14"/>
      <point x="286" y="-9"/>
      <point x="252" y="0" type="curve"/>
      <point x="142" y="-222" type="line"/>
      <point x="77" y="-222" type="line"/>
    </contour>
    <contour>
      <point x="599" y="815" type="line"/>
      <point x="581" y="817"/>
      <point x="560" y="819"/>
      <point x="538" y="819" type="curve" smooth="yes"/>
      <point x="333" y="819"/>
      <point x="70" y="652"/>
      <point x="70" y="344" type="curve" smooth="yes"/>
      <point x="70" y="218"/>
      <point x="135" y="130"/>
      <point x="233" y="87" type="curve"/>
    </contour>
  </outline>
</glyph>
<glyph name="currency" format="1">
  <advance width="1130"/>
  <unicode hex="00A4"/>
  <outline>
    <contour>
      <point x="125" y="648" type="line"/>
      <point x="250" y="750" type="line"/>
      <point x="218" y="801"/>
      <point x="202" y="863"/>
      <point x="202" y="928" type="curve" smooth="yes"/>
      <point x="202" y="1041"/>
      <point x="252" y="1164"/>
      <point x="355" y="1257" type="curve"/>
      <point x="276" y="1359" type="line"/>
      <point x="380" y="1444" type="line"/>
      <point x="466" y="1337" type="line"/>
      <point x="535" y="1377"/>
      <point x="617" y="1398"/>
      <point x="693" y="1398" type="curve" smooth="yes"/>
      <point x="772" y="1398"/>
      <point x="846" y="1377"/>
      <point x="902" y="1335" type="curve"/>
      <point x="1036" y="1444" type="line"/>
      <point x="1103" y="1359" type="line"/>
      <point x="978" y="1255" type="line"/>
      <point x="1007" y="1204"/>
      <point x="1021" y="1145"/>
      <point x="1021" y="1086" type="curve" smooth="yes"/>
      <point x="1021" y="971"/>
      <point x="969" y="851"/>
      <point x="869" y="753" type="curve"/>
      <point x="952" y="648" type="line"/>
      <point x="847" y="563" type="line"/>
      <point x="759" y="673" type="line"/>
      <point x="691" y="631"/>
      <point x="611" y="611"/>
      <point x="533" y="611" type="curve" smooth="yes"/>
      <point x="455" y="611"/>
      <point x="380" y="631"/>
      <point x="326" y="672" type="curve"/>
      <point x="193" y="563" type="line"/>
    </contour>
    <contour>
      <point x="554" y="708" type="curve" smooth="yes"/>
      <point x="700" y="708"/>
      <point x="863" y="802"/>
      <point x="905" y="996" type="curve"/>
      <point x="910" y="1024"/>
      <point x="913" y="1049"/>
      <point x="913" y="1072" type="curve" smooth="yes"/>
      <point x="913" y="1222"/>
      <point x="800" y="1297"/>
      <point x="673" y="1297" type="curve" smooth="yes"/>
      <point x="518" y="1297"/>
      <point x="312" y="1176"/>
      <point x="312" y="931" type="curve" smooth="yes"/>
      <point x="312" y="781"/>
      <point x="426" y="708"/>
    </contour>
  </outline>
</glyph>
<glyph name="yen" format="1">
  <advance width="1280"/>
  <unicode hex="00A5"/>
  <outline>
    <contour>
      <point x="947" y="300" type="line"/>
      <point x="934" y="236" type="line"/>
      <point x="584" y="236" type="line"/>
      <point x="547" y="64" type="line"/>
      <point x="714" y="64" type="line"/>
      <point x="700" y="0" type="line"/>
      <point x="281" y="0" type="line"/>
      <point x="294" y="64" type="line"/>
      <point x="462" y="64" type="line"/>
      <point x="498" y="236" type="line"/>
      <point x="155" y="236" type="line"/>
      <point x="168" y="300" type="line"/>
      <point x="512" y="300" type="line"/>
      <point x="544" y="451" type="line"/>
      <point x="200" y="451" type="line"/>
      <point x="214" y="516" type="line"/>
      <point x="521" y="516" type="line"/>
      <point x="246" y="1218" type="line"/>
      <point x="82" y="1218" type="line"/>
      <point x="95" y="1284" type="line"/>
      <point x="517" y="1284" type="line"/>
      <point x="501" y="1218" type="line"/>
      <point x="338" y="1218" type="line"/>
      <point x="604" y="528" type="line"/>
      <point x="1157" y="1218" type="line"/>
      <point x="991" y="1218" type="line"/>
      <point x="1006" y="1284" type="line"/>
      <point x="1426" y="1284" type="line"/>
      <point x="1411" y="1218" type="line"/>
      <point x="1249" y="1218" type="line"/>
      <point x="681" y="516" type="line"/>
      <point x="992" y="516" type="line"/>
      <point x="978" y="451" type="line"/>
      <point x="630" y="451" type="line"/>
      <point x="597" y="300" type="line"/>
    </contour>
  </outline>
</glyph>
<glyph name="brokenbar" format="1">
  <advance width="414"/>
  <unicode hex="00A6"/>
  <outline>
    <contour>
      <point x="191" y="744" type="line"/>
      <point x="311" y="1306" type="line"/>
      <point x="382" y="1306" type="line"/>
      <point x="262" y="744" type="line"/>
    </contour>
    <contour>
      <point x="29" y="-23" type="line"/>
      <point x="147" y="538" type="line"/>
      <point x="219" y="538" type="line"/>
      <point x="98" y="-23" type="line"/>
    </contour>
  </outline>
</glyph>
<glyph name="uni00AD" format="1">
  <advance width="709"/>
  <unicode hex="00AD"/>
  <outline>
    <contour>
      <point x="174" y="1101" type="line"/>
      <point x="190" y="1168" type="line"/>
      <point x="596" y="1168" type="line"/>
      <point x="581" y="1101" type="line"/>
    </contour>
  </outline>
</glyph>
<glyph name="degree" format="1">
  <advance width="889"/>
  <unicode hex="00B0"/>
  <outline>
    <contour>
      <point x="705" y="1141" type="curve" smooth="yes"/>
      <point x="705" y="1233"/>
      <point x="638" y="1289"/>
      <point x="536" y="1289" type="curve" smooth="yes"/>
      <point x="407" y="1289"/>
      <point x="287" y="1192"/>
      <point x="287" y="1048" type="curve" smooth="yes"/>
      <point x="287" y="956"/>
      <point x="352" y="900"/>
      <point x="454" y="900" type="curve" smooth="yes"/>
      <point x="583" y="900"/>
      <point x="705" y="996"/>
    </contour>
    <contour>
      <point x="822" y="1160" type="curve" smooth="yes"/>
      <point x="822" y="921"/>
      <point x="597" y="799"/>
      <point x="432" y="799" type="curve" smooth="yes"/>
      <point x="297" y="799"/>
      <point x="168" y="876"/>
      <point x="168" y="1028" type="curve" smooth="yes"/>
      <point x="168" y="1268"/>
      <point x="393" y="1390"/>
      <point x="558" y="1390" type="curve" smooth="yes"/>
      <point x="694" y="1390"/>
      <point x="822" y="1313"/>
    </contour>
  </outline>
</glyph>
<glyph name="plusminus" format="1">
  <advance width="877"/>
  <unicode hex="00B1"/>
  <outline>
    <contour>
      <point x="715" y="0" type="line"/>
      <point x="729" y="64" type="line"/>
      <point x="-77" y="64" type="line"/>
      <point x="-90" y="0" type="line"/>
    </contour>
    <contour>
      <point x="564" y="1022" type="line"/>
      <point x="479" y="622" type="line"/>
      <point x="849" y="622" type="line"/>
      <point x="835" y="556" type="line"/>
      <point x="465" y="556" type="line"/>
      <point x="377" y="144" type="line"/>
      <point x="313" y="144" type="line"/>
      <point x="400" y="556" type="line"/>
      <point x="29" y="556" type="line"/>
      <point x="45" y="622" type="line"/>
      <point x="415" y="622" type="line"/>
      <point x="499" y="1022" type="line"/>
    </contour>
  </outline>
</glyph>
<glyph name="twosuperior" format="1">
  <advance width="860"/>
  <unicode hex="00B2"/>
  <outline>
    <contour>
      <point x="677" y="713" type="curve" smooth="yes"/>
      <point x="677" y="798"/>
      <point x="619" y="845"/>
      <point x="518" y="845" type="curve" smooth="yes"/>
      <point x="364" y="845"/>
      <point x="269" y="734"/>
      <point x="269" y="557" type="curve"/>
      <point x="188" y="557" type="line"/>
      <point x="188" y="780"/>
      <point x="348" y="917"/>
      <point x="537" y="917" type="curve" smooth="yes"/>
      <point x="674" y="917"/>
      <point x="759" y="848"/>
      <point x="759" y="727" type="curve" smooth="yes"/>
      <point x="759" y="707"/>
      <point x="757" y="684"/>
      <point x="752" y="661" type="curve" smooth="yes"/>
      <point x="711" y="467"/>
      <point x="321" y="199"/>
      <point x="172" y="74" type="curve"/>
      <point x="586" y="74" type="line"/>
      <point x="569" y="3" type="line"/>
      <point x="43" y="3" type="line"/>
      <point x="57" y="72" type="line"/>
      <point x="160" y="157"/>
      <point x="677" y="488"/>
    </contour>
  </outline>
</glyph>
<glyph name="cedilla" format="1">
  <advance width="463"/>
  <unicode hex="00B8"/>
  <outline>
    <contour>
      <point x="47" y="-266" type="curve"/>
      <point x="57" y="-218" type="line"/>
      <point x="71" y="-222"/>
      <point x="108" y="-233"/>
      <point x="141" y="-233" type="curve" smooth="yes"/>
      <point x="166" y="-233"/>
      <point x="199" y="-224"/>
      <point x="199" y="-196" type="curve" smooth="yes"/>
      <point x="199" y="-170"/>
      <point x="160" y="-155"/>
      <point x="104" y="-150" type="curve"/>
      <point x="198" y="6" type="line"/>
      <point x="250" y="6" type="line"/>
      <point x="185" y="-112" type="line"/>
      <point x="197" y="-112" type="line" smooth="yes"/>
      <point x="272" y="-112"/>
      <point x="307" y="-149"/>
      <point x="307" y="-191" type="curve" smooth="yes"/>
      <point x="307" y="-236"/>
      <point x="260" y="-288"/>
      <point x="167" y="-288" type="curve" smooth="yes"/>
      <point x="121" y="-288"/>
      <point x="75" y="-276"/>
    </contour>
  </outline>
</glyph>
<glyph name="ordmasculine" format="1">
  <advance width="918"/>
  <unicode hex="00BA"/>
  <outline>
    <contour>
      <point x="233" y="927" type="curve" smooth="yes"/>
      <point x="233" y="799"/>
      <point x="330" y="734"/>
      <point x="441" y="734" type="curve" smooth="yes"/>
      <point x="577" y="734"/>
      <point x="756" y="843"/>
      <point x="756" y="1049" type="curve" smooth="yes"/>
      <point x="756" y="1175"/>
      <point x="658" y="1240"/>
      <point x="548" y="1240" type="curve" smooth="yes"/>
      <point x="410" y="1240"/>
      <point x="233" y="1132"/>
    </contour>
    <contour>
      <point x="561" y="1306" type="curve" smooth="yes"/>
      <point x="706" y="1306"/>
      <point x="835" y="1225"/>
      <point x="835" y="1063" type="curve" smooth="yes"/>
      <point x="835" y="805"/>
      <point x="605" y="667"/>
      <point x="426" y="667" type="curve" smooth="yes"/>
      <point x="281" y="667"/>
      <point x="154" y="750"/>
      <point x="154" y="913" type="curve" smooth="yes"/>
      <point x="154" y="1170"/>
      <point x="382" y="1306"/>
    </contour>
  </outline>
</glyph>
<glyph name="onehalf" format="1">
  <advance width="1618"/>
  <unicode hex="00BD"/>
  <outline>
    <contour>
      <point x="200" y="444" type="line"/>
      <point x="323" y="444" type="line"/>
      <point x="309" y="379" type="line"/>
      <point x="-16" y="379" type="line"/>
      <point x="-3" y="444" type="line"/>
      <point x="124" y="444" type="line"/>
      <point x="284" y="1198" type="line"/>
      <point x="169" y="1178" type="line"/>
      <point x="169" y="1245" type="line"/>
      <point x="380" y="1284" type="line"/>
    </contour>
    <contour>
      <point x="1526" y="713" type="curve" smooth="yes"/>
      <point x="1526" y="798"/>
      <point x="1469" y="845"/>
      <point x="1368" y="845" type="curve" smooth="yes"/>
      <point x="1214" y="845"/>
      <point x="1118" y="734"/>
      <point x="1118" y="557" type="curve"/>
      <point x="1037" y="557" type="line"/>
      <point x="1037" y="780"/>
      <point x="1198" y="917"/>
      <point x="1386" y="917" type="curve" smooth="yes"/>
      <point x="1523" y="917"/>
      <point x="1608" y="848"/>
      <point x="1608" y="727" type="curve" smooth="yes"/>
      <point x="1608" y="707"/>
      <point x="1606" y="684"/>
      <point x="1601" y="661" type="curve" smooth="yes"/>
      <point x="1560" y="467"/>
      <point x="1170" y="199"/>
      <point x="1021" y="74" type="curve"/>
      <point x="1435" y="74" type="line"/>
      <point x="1419" y="1" type="line"/>
      <point x="893" y="1" type="line"/>
      <point x="907" y="72" type="line"/>
      <point x="1011" y="158"/>
      <point x="1526" y="486"/>
    </contour>
    <contour>
      <point x="354" y="-23" type="line"/>
      <point x="1024" y="1306" type="line"/>
      <point x="1098" y="1306" type="line"/>
      <point x="433" y="-23" type="line"/>
    </contour>
  </outline>
</glyph>
<glyph name="multiply" format="1">
  <advance width="629"/>
  <unicode hex="00D7"/>
  <outline>
    <contour>
      <point x="94" y="799" type="line"/>
      <point x="150" y="845" type="line"/>
      <point x="316" y="634" type="line"/>
      <point x="574" y="847" type="line"/>
      <point x="610" y="800" type="line"/>
      <point x="355" y="588" type="line"/>
      <point x="519" y="375" type="line"/>
      <point x="464" y="329" type="line"/>
      <point x="297" y="542" type="line"/>
      <point x="41" y="330" type="line"/>
      <point x="4" y="376" type="line"/>
      <point x="261" y="588" type="line"/>
    </contour>
  </outline>
</glyph>
<glyph name="Oslash" format="1">
  <advance width="1319"/>
  <unicode hex="00D8"/>
  <outline>
    <contour>
      <point x="1146" y="1421" type="line"/>
      <point x="1195" y="1397" type="line"/>
      <point x="201" y="-143" type="line"/>
      <point x="152" y="-117" type="line"/>
    </contour>
  </outline>
</glyph>
<glyph name="eth" format="1">
  <advance width="977"/>
  <unicode hex="00F0"/>
  <outline>
    <contour>
      <point x="300" y="998" type="line"/>
      <point x="282" y="1052" type="line"/>
      <point x="527" y="1154" type="line"/>
      <point x="467" y="1232"/>
      <point x="403" y="1315"/>
      <point x="327" y="1375" type="curve"/>
      <point x="384" y="1434" type="line"/>
      <point x="469" y="1349"/>
      <point x="540" y="1266"/>
      <point x="599" y="1186" type="curve"/>
      <point x="869" y="1298" type="line"/>
      <point x="891" y="1241" type="line"/>
      <point x="633" y="1137" type="line"/>
      <point x="867" y="792"/>
      <point x="886" y="514"/>
      <point x="886" y="449" type="curve" smooth="yes"/>
      <point x="886" y="182"/>
      <point x="671" y="-23"/>
      <point x="406" y="-23" type="curve" smooth="yes"/>
      <point x="174" y="-23"/>
      <point x="66" y="119"/>
      <point x="66" y="293" type="curve" smooth="yes"/>
      <point x="66" y="552"/>
      <point x="302" y="776"/>
      <point x="555" y="776" type="curve" smooth="yes"/>
      <point x="621" y="776"/>
      <point x="708" y="750"/>
      <point x="758" y="706" type="curve"/>
      <point x="739" y="800"/>
      <point x="668" y="957"/>
      <point x="562" y="1106" type="curve"/>
    </contour>
    <contour>
      <point x="814" y="439" type="curve" smooth="yes"/>
      <point x="814" y="580"/>
      <point x="733" y="704"/>
      <point x="550" y="704" type="curve" smooth="yes"/>
      <point x="378" y="704"/>
      <point x="151" y="561"/>
      <point x="151" y="297" type="curve" smooth="yes"/>
      <point x="151" y="165"/>
      <point x="232" y="51"/>
      <point x="421" y="51" type="curve" smooth="yes"/>
      <point x="665" y="51"/>
      <point x="814" y="261"/>
    </contour>
  </outline>
</glyph>
<glyph name="divide" format="1">
  <advance width="571"/>
  <unicode hex="00F7"/>
  <outline>
    <contour>
      <point x="535" y="429" type="line"/>
      <point x="548" y="494" type="line"/>
      <point x="-3" y="494" type="line"/>
      <point x="-16" y="429" type="line"/>
    </contour>
    <contour>
      <point x="171" y="288" type="line"/>
      <point x="291" y="288" type="line"/>
      <point x="265" y="162" type="line"/>
      <point x="144" y="162" type="line"/>
    </contour>
    <contour>
      <point x="271" y="754" type="line"/>
      <point x="391" y="754" type="line"/>
      <point x="363" y="629" type="line"/>
      <point x="243" y="629" type="line"/>
    </contour>
  </outline>
</glyph>
<glyph name="hbar" format="1">
  <advance width="1016"/>
  <unicode hex="0127"/>
  <outline>
    <contour>
      <point x="132" y="990" type="line"/>
      <point x="148" y="1058" type="line"/>
      <point x="301.702" y="1058" type="line"/>
      <point x="332" y="1208" type="line"/>
      <point x="164" y="1208" type="line"/>
      <point x="176" y="1265" type="line"/>
      <point x="430" y="1265" type="line"/>
      <point x="385.41" y="1058" type="line"/>
      <point x="554" y="1058" type="line"/>
      <point x="539" y="990" type="line"/>
      <point x="370.762" y="990" type="line"/>
      <point x="307" y="694" type="line"/>
      <point x="380" y="793"/>
      <point x="486" y="851"/>
      <point x="601" y="851" type="curve" smooth="yes"/>
      <point x="753" y="851"/>
      <point x="817" y="758"/>
      <point x="817" y="639" type="curve" smooth="yes"/>
      <point x="817" y="610"/>
      <point x="814" y="577"/>
      <point x="807" y="545" type="curve" smooth="yes"/>
      <point x="726" y="202" type="line" smooth="yes"/>
      <point x="722" y="185"/>
      <point x="712" y="152"/>
      <point x="712" y="121" type="curve" smooth="yes"/>
      <point x="712" y="85"/>
      <point x="726" y="52"/>
      <point x="773" y="52" type="curve" smooth="yes"/>
      <point x="838" y="52"/>
      <point x="877" y="134"/>
      <point x="899" y="210" type="curve"/>
      <point x="956" y="188" type="line"/>
      <point x="929" y="64"/>
      <point x="859" y="-9"/>
      <point x="769" y="-9" type="curve" smooth="yes"/>
      <point x="668" y="-9"/>
      <point x="634" y="54"/>
      <point x="634" y="129" type="curve" smooth="yes"/>
      <point x="634" y="152"/>
      <point x="637" y="176"/>
      <point x="643" y="201" type="curve" smooth="yes"/>
      <point x="728" y="550" type="line"/>
      <point x="736" y="577"/>
      <point x="739" y="608"/>
      <point x="739" y="633" type="curve" smooth="yes"/>
      <point x="739" y="720"/>
      <point x="698" y="789"/>
      <point x="591" y="789" type="curve" smooth="yes"/>
      <point x="479" y="789"/>
      <point x="309" y="687"/>
      <point x="266" y="469" type="curve" smooth="yes"/>
      <point x="173" y="0" type="line"/>
      <point x="88" y="0" type="line"/>
      <point x="287.967" y="990" type="line"/>
    </contour>
  </outline>
</glyph>
<glyph name="kgreenlandic" format="1">
  <advance width="928"/>
  <unicode hex="0138"/>
  <outline>
    <contour>
      <point x="438" y="390" type="line"/>
      <point x="255" y="390" type="line"/>
      <point x="175" y="0" type="line"/>
      <point x="90" y="0" type="line"/>
      <point x="257" y="806" type="line"/>
      <point x="88" y="806" type="line"/>
      <point x="101" y="864" type="line"/>
      <point x="354" y="864" type="line"/>
      <point x="269" y="449" type="line"/>
      <point x="444" y="449" type="line"/>
      <point x="627" y="748" type="line" smooth="yes"/>
      <point x="680" y="835"/>
      <point x="715" y="850"/>
      <point x="783" y="851" type="curve" smooth="yes"/>
      <point x="857" y="852" type="line"/>
      <point x="845" y="790" type="line"/>
      <point x="806" y="790" type="line" smooth="yes"/>
      <point x="743" y="790"/>
      <point x="731" y="751"/>
      <point x="703" y="708" type="curve" smooth="yes"/>
      <point x="520" y="417" type="line"/>
      <point x="589" y="158" type="line" smooth="yes"/>
      <point x="601" y="116"/>
      <point x="610" y="52"/>
      <point x="660" y="52" type="curve" smooth="yes"/>
      <point x="728" y="52"/>
      <point x="761" y="135"/>
      <point x="787" y="213" type="curve"/>
      <point x="841" y="192" type="line"/>
      <point x="807" y="65"/>
      <point x="749" y="-9"/>
      <point x="651" y="-9" type="curve" smooth="yes"/>
      <point x="557" y="-9"/>
      <point x="529" y="59"/>
      <point x="505" y="143" type="curve"/>
    </contour>
  </outline>
</glyph>
<glyph name="lslash" format="1">
  <advance width="754"/>
  <unicode hex="0142"/>
  <outline>
    <contour>
      <point x="683.226" y="959.793" type="line"/>
      <point x="910" y="1015" type="line"/>
      <point x="898" y="953" type="line"/>
      <point x="670.217" y="897.754" type="line"/>
      <point x="526" y="210" type="line" smooth="yes"/>
      <point x="521" y="185"/>
      <point x="516" y="156"/>
      <point x="516" y="129" type="curve" smooth="yes"/>
      <point x="516" y="87"/>
      <point x="531" y="52"/>
      <point x="581" y="52" type="curve" smooth="yes"/>
      <point x="648" y="52"/>
      <point x="682" y="135"/>
      <point x="706" y="213" type="curve"/>
      <point x="760" y="192" type="line"/>
      <point x="728" y="65"/>
      <point x="670" y="-9"/>
      <point x="572" y="-9" type="curve" smooth="yes"/>
      <point x="478" y="-9"/>
      <point x="434" y="56"/>
      <point x="434" y="143" type="curve" smooth="yes"/>
      <point x="434" y="163"/>
      <point x="436" y="187"/>
      <point x="441" y="208" type="curve" smooth="yes"/>
      <point x="580.926" y="876.098" type="line"/>
      <point x="362" y="823" type="line"/>
      <point x="376" y="885" type="line"/>
      <point x="593.901" y="938.047" type="line"/>
      <point x="654" y="1225" type="line"/>
      <point x="485" y="1225" type="line"/>
      <point x="498" y="1283" type="line"/>
      <point x="751" y="1283" type="line"/>
    </contour>
  </outline>
</glyph>
<glyph name="florin" format="1">
  <advance width="707"/>
  <unicode hex="0192"/>
  <outline>
    <contour>
      <point x="878" y="1268" type="curve"/>
      <point x="851" y="1212" type="line"/>
      <point x="822" y="1224"/>
      <point x="789" y="1231"/>
      <point x="755" y="1231" type="curve" smooth="yes"/>
      <point x="703" y="1231"/>
      <point x="653" y="1202"/>
      <point x="615" y="1124" type="curve" smooth="yes"/>
      <point x="491" y="870" type="line"/>
      <point x="701" y="870" type="line"/>
      <point x="673" y="811" type="line"/>
      <point x="462" y="811" type="line"/>
      <point x="95" y="62" type="line"/>
      <point x="22" y="-90"/>
      <point x="-87" y="-90"/>
      <point x="-182" y="-90" type="curve"/>
      <point x="-151" y="-24" type="line"/>
      <point x="-95" y="-24"/>
      <point x="-28" y="-24"/>
      <point x="15" y="62" type="curve" smooth="yes"/>
      <point x="380" y="811" type="line"/>
      <point x="219" y="811" type="line"/>
      <point x="247" y="870" type="line"/>
      <point x="408" y="870" type="line"/>
      <point x="533" y="1122" type="line"/>
      <point x="583" y="1231"/>
      <point x="667" y="1294"/>
      <point x="765" y="1294" type="curve" smooth="yes"/>
      <point x="800" y="1294"/>
      <point x="842" y="1286"/>
    </contour>
  </outline>
</glyph>
<glyph name="hungarumlaut" format="1">
  <advance width="657"/>
  <unicode hex="02DD"/>
  <outline>
    <contour>
      <point x="423" y="1025" type="line"/>
      <point x="391" y="1025" type="line"/>
      <point x="508" y="1284" type="line"/>
      <point x="638" y="1284" type="line"/>
    </contour>
    <contour>
      <point x="205" y="1025" type="line"/>
      <point x="172" y="1025" type="line"/>
      <point x="289" y="1284" type="line"/>
      <point x="420" y="1284" type="line"/>
    </contour>
  </outline>
</glyph>
<glyph name="dotaccentcmb" format="1">
  <advance width="444"/>
  <unicode hex="0307"/>
  <outline>
    <contour>
      <point x="228" y="1232" type="line"/>
      <point x="348" y="1232" type="line"/>
      <point x="323" y="1107" type="line"/>
      <point x="201" y="1107" type="line"/>
    </contour>
  </outline>
</glyph>
<glyph name="endash" format="1">
  <advance width="1057"/>
  <unicode hex="2013"/>
  <outline>
    <contour>
      <point x="107" y="62" type="line"/>
      <point x="851" y="62" type="line"/>
      <point x="839" y="0" type="line"/>
      <point x="92" y="0" type="line"/>
    </contour>
  </outline>
</glyph>
<glyph name="emdash" format="1">
  <advance width="1432"/>
  <unicode hex="2014"/>
  <outline>
    <contour>
      <point x="107" y="62" type="line"/>
      <point x="1227" y="62" type="line"/>
      <point x="1214" y="0" type="line"/>
      <point x="92" y="0" type="line"/>
    </contour>
  </outline>
</glyph>
<glyph name="quoteleft" format="1">
  <advance width="442"/>
  <unicode hex="2018"/>
  <outline>
    <contour>
      <point x="312" y="997" type="line"/>
      <point x="180" y="997" type="line"/>
      <point x="208" y="1125" type="line"/>
      <point x="229" y="1228"/>
      <point x="282" y="1306"/>
      <point x="387" y="1306" type="curve"/>
      <point x="378" y="1260" type="line"/>
      <point x="304" y="1237"/>
      <point x="293" y="1210"/>
      <point x="275" y="1123" type="curve"/>
      <point x="338" y="1123" type="line"/>
    </contour>
  </outline>
</glyph>
<glyph name="quoteright" format="1">
  <advance width="451"/>
  <unicode hex="2019"/>
  <outline>
    <contour>
      <point x="257" y="1284" type="line"/>
      <point x="387" y="1284" type="line"/>
      <point x="361" y="1156" type="line"/>
      <point x="338" y="1054"/>
      <point x="285" y="974"/>
      <point x="180" y="974" type="curve"/>
      <point x="189" y="1022" type="line"/>
      <point x="264" y="1043"/>
      <point x="274" y="1072"/>
      <point x="292" y="1159" type="curve"/>
      <point x="229" y="1159" type="line"/>
    </contour>
  </outline>
</glyph>
<glyph name="quotedblbase" format="1">
  <advance width="723"/>
  <unicode hex="201E"/>
  <outline>
    <contour>
      <point x="135" y="120" type="line"/>
      <point x="265" y="120" type="line"/>
      <point x="239" y="-6" type="line"/>
      <point x="216" y="-108"/>
      <point x="164" y="-188"/>
      <point x="59" y="-188" type="curve"/>
      <point x="69" y="-142" type="line"/>
      <point x="143" y="-118"/>
      <point x="154" y="-92"/>
      <point x="172" y="-4" type="curve"/>
      <point x="108" y="-4" type="line"/>
    </contour>
    <contour>
      <point x="396" y="120" type="line"/>
      <point x="526" y="120" type="line"/>
      <point x="500" y="-6" type="line"/>
      <point x="477" y="-108"/>
      <point x="424" y="-188"/>
      <point x="320" y="-188" type="curve"/>
      <point x="331" y="-142" type="line"/>
      <point x="404" y="-118"/>
      <point x="414" y="-92"/>
      <point x="433" y="-4" type="curve"/>
      <point x="369" y="-4" type="line"/>
    </contour>
  </outline>
</glyph>
<glyph name="dagger" format="1">
  <advance width="555"/>
  <unicode hex="2020"/>
  <outline>
    <contour>
      <point x="583" y="897" type="line"/>
      <point x="353" y="923" type="line"/>
      <point x="346" y="596"/>
      <point x="231" y="353"/>
      <point x="157" y="2" type="curve"/>
      <point x="115" y="2" type="line"/>
      <point x="190" y="357"/>
      <point x="178" y="594"/>
      <point x="311" y="923" type="curve"/>
      <point x="66" y="897" type="line"/>
      <point x="83" y="978" type="line"/>
      <point x="319" y="960" type="line"/>
      <point x="349" y="1259" type="line"/>
      <point x="459" y="1259" type="line"/>
      <point x="361" y="960" type="line"/>
      <point x="601" y="978" type="line"/>
    </contour>
  </outline>
</glyph>
<glyph name="guilsinglright" format="1">
  <advance width="520"/>
  <unicode hex="203A"/>
  <outline>
    <contour>
      <point x="249" y="1085" type="line"/>
      <point x="449" y="691" type="line"/>
      <point x="81" y="293" type="line"/>
      <point x="31" y="293" type="line"/>
      <point x="337" y="691" type="line"/>
      <point x="199" y="1085" type="line"/>
    </contour>
  </outline>
</glyph>
<glyph name="foursuperior" format="1">
  <advance width="760"/>
  <unicode hex="2074"/>
  <outline>
    <contour>
      <point x="2" y="270" type="line"/>
      <point x="5" y="328" type="line"/>
      <point x="478" y="901" type="line"/>
      <point x="574" y="901" type="line"/>
      <point x="454" y="336" type="line"/>
      <point x="639" y="336" type="line"/>
      <point x="625" y="270" type="line"/>
      <point x="440" y="270" type="line"/>
      <point x="396" y="63" type="line"/>
      <point x="512" y="63" type="line"/>
      <point x="500" y="0" type="line"/>
      <point x="191" y="0" type="line"/>
      <point x="203" y="63" type="line"/>
      <point x="319" y="63" type="line"/>
      <point x="364" y="270" type="line"/>
    </contour>
    <contour>
      <point x="99" y="336" type="curve"/>
      <point x="377" y="336" type="line"/>
      <point x="476" y="799" type="line"/>
      <point x="348" y="641"/>
      <point x="227" y="496"/>
    </contour>
  </outline>
</glyph>
<glyph name="Euro" format="1">
  <advance width="1260"/>
  <unicode hex="20AC"/>
  <outline>
    <contour>
      <point x="912" y="826" type="line"/>
      <point x="899" y="762" type="line"/>
      <point x="245" y="762" type="line"/>
      <point x="214" y="688"/>
      <point x="200" y="605"/>
      <point x="194" y="538" type="curve"/>
      <point x="851" y="538" type="line"/>
      <point x="837" y="473" type="line"/>
      <point x="192" y="473" type="line"/>
      <point x="196" y="198"/>
      <point x="379" y="49"/>
      <point x="626" y="49" type="curve" smooth="yes"/>
      <point x="759" y="49"/>
      <point x="909" y="92"/>
      <point x="1060" y="181" type="curve"/>
      <point x="1082" y="114" type="line"/>
      <point x="924" y="23"/>
      <point x="757" y="-22"/>
      <point x="606" y="-22" type="curve" smooth="yes"/>
      <point x="318" y="-22"/>
      <point x="102" y="140"/>
      <point x="102" y="473" type="curve"/>
      <point x="-90" y="473" type="line"/>
      <point x="-77" y="538" type="line"/>
      <point x="105" y="538" type="line"/>
      <point x="114" y="606"/>
      <point x="126" y="686"/>
      <point x="156" y="762" type="curve"/>
      <point x="-29" y="762" type="line"/>
      <point x="-14" y="826" type="line"/>
      <point x="183" y="826" type="line"/>
      <point x="320" y="1113"/>
      <point x="615" y="1306"/>
      <point x="879" y="1306" type="curve" smooth="yes"/>
      <point x="1014" y="1306"/>
      <point x="1141" y="1256"/>
      <point x="1236" y="1143" type="curve"/>
      <point x="1266" y="1287" type="line"/>
      <point x="1344" y="1287" type="line"/>
      <point x="1294" y="1048" type="line"/>
      <point x="1226" y="1034" type="line"/>
      <point x="1132" y="1168"/>
      <point x="1001" y="1226"/>
      <point x="863" y="1226" type="curve" smooth="yes"/>
      <point x="637" y="1226"/>
      <point x="395" y="1066"/>
      <point x="272" y="826" type="curve"/>
    </contour>
  </outline>
</glyph>
<glyph name="uniFB00" format="1">
  <advance width="1085"/>
  <unicode hex="FB00"/>
  <outline>
    <contour>
      <point x="1246" y="1209" type="curve"/>
      <point x="1199" y="1159" type="line"/>
      <point x="1174" y="1190"/>
      <point x="1140" y="1206"/>
      <point x="1102" y="1206" type="curve" smooth="yes"/>
      <point x="1025" y="1206"/>
      <point x="942" y="1147"/>
      <point x="925" y="1071" type="curve" smooth="yes"/>
      <point x="873" y="828" type="line"/>
      <point x="1065" y="828" type="line"/>
      <point x="1051" y="770" type="line"/>
      <point x="861" y="770" type="line"/>
      <point x="713" y="62" type="line"/>
      <point x="912" y="62" type="line"/>
      <point x="899" y="0" type="line"/>
      <point x="498" y="0" type="line"/>
      <point x="512" y="62" type="line"/>
      <point x="630" y="62" type="line"/>
      <point x="778" y="770" type="line"/>
      <point x="358" y="770" type="line"/>
      <point x="210" y="62" type="line"/>
      <point x="347" y="62" type="line"/>
      <point x="334" y="0" type="line"/>
      <point x="-57" y="0" type="line"/>
      <point x="-43" y="62" type="line"/>
      <point x="128" y="62" type="line"/>
      <point x="276" y="770" type="line"/>
      <point x="98" y="770" type="line"/>
      <point x="114" y="828" type="line"/>
      <point x="289" y="828" type="line"/>
      <point x="339" y="1069" type="line"/>
      <point x="361" y="1181"/>
      <point x="484" y="1267"/>
      <point x="600" y="1267" type="curve" smooth="yes"/>
      <point x="652" y="1267"/>
      <point x="702" y="1251"/>
      <point x="744" y="1209" type="curve"/>
      <point x="697" y="1159" type="line"/>
      <point x="671" y="1190"/>
      <point x="637" y="1206"/>
      <point x="600" y="1206" type="curve" smooth="yes"/>
      <point x="523" y="1206"/>
      <point x="440" y="1147"/>
      <point x="423" y="1071" type="curve" smooth="yes"/>
      <point x="371" y="828" type="line"/>
      <point x="791" y="828" type="line"/>
      <point x="841" y="1069" type="line" smooth="yes"/>
      <point x="864" y="1181"/>
      <point x="985" y="1267"/>
      <point x="1102" y="1267" type="curve" smooth="yes"/>
      <point x="1154" y="1267"/>
      <point x="1204" y="1251"/>
    </contour>
  </outline>
</glyph>
